<svg xmlns="http://www.w3.org/2000/svg" viewBox="0 0 400 300" fill="none">
  <!-- Sun -->
  <circle cx="340" cy="50" r="24" stroke="#171717" stroke-width="1.5" />
  <path d="M340 14V8M340 92V98M366 50h6M328 50h-6" stroke="#171717" stroke-width="1.5" stroke-linecap="round" />

  <!-- Clouds -->
  <path d="M80 55 Q95 40 110 55 Q130 45 140 60" stroke="#171717" stroke-width="1.5" fill="none" stroke-linecap="round" />
  <path d="M300 80 Q310 68 325 80 Q340 72 350 82" stroke="#171717" stroke-width="1.5" fill="none" stroke-linecap="round" />

  <!-- Water surface -->
  <path d="M0 230 Q50 225 100 230 Q150 235 200 230 Q250 225 300 230 Q350 235 400 230" stroke="#171717" stroke-width="1.5" fill="none" opacity="0.4" />
  <path d="M0 245 Q60 240 120 245 Q180 250 240 245 Q300 240 360 245 Q400 248 400 245" stroke="#171717" stroke-width="1" fill="none" opacity="0.25" />
  <path d="M0 270 Q70 265 140 270 Q210 275 280 270 Q340 265 400 270" stroke="#171717" stroke-width="1" fill="none" opacity="0.15" />

  <!-- Boat -->
  <path d="M130 220 L170 240 L230 240 L270 220 Z" stroke="#171717" stroke-width="2" fill="white" stroke-linejoin="round" />
  <path d="M170 240 L230 240" stroke="#171717" stroke-width="2" />
  <line x1="190" y1="232" x2="210" y2="232" stroke="#171717" stroke-width="1.5" />

  <!-- Person sitting -->
  <path d="M200 220 L200 200 L190 190" stroke="#171717" stroke-width="2.5" stroke-linecap="round" stroke-linejoin="round" fill="none" />
  <path d="M200 200 L215 190" stroke="#171717" stroke-width="2.5" stroke-linecap="round" fill="none" />

  <!-- Body -->
  <path d="M190 180 L210 180 L215 190 L185 190 Z" stroke="#171717" stroke-width="2" fill="white" stroke-linejoin="round" />

  <!-- Head with hat -->
  <circle cx="200" cy="170" r="12" stroke="#171717" stroke-width="2" fill="white" />
  <path d="M184 168 Q192 160 200 160 Q208 160 216 168" stroke="#171717" stroke-width="2" fill="white" stroke-linecap="round" />

  <!-- Arm holding rod -->
  <path d="M192 186 L170 180 L140 170" stroke="#171717" stroke-width="2" stroke-linecap="round" fill="none" />

  <!-- Fishing rod -->
  <path d="M140 170 L80 130" stroke="#171717" stroke-width="2" stroke-linecap="round" />

  <!-- Fishing line -->
  <path d="M80 130 Q75 180 85 220 Q90 240 95 260" stroke="#171717" stroke-width="1" stroke-dasharray="3 2" fill="none" opacity="0.5" />

  <!-- Fish on hook -->
  <ellipse cx="95" cy="268" rx="7" ry="3.5" stroke="#171717" stroke-width="1.5" fill="white" />
  <path d="M102 268 L108 265 L108 271 Z" stroke="#171717" stroke-width="1" fill="white" />

  <!-- Ripples around boat -->
  <ellipse cx="200" cy="242" rx="60" ry="5" stroke="#171717" stroke-width="1" fill="none" opacity="0.2" />

  <!-- Birds -->
  <path d="M260 110 Q265 105 270 110 Q275 105 280 110" stroke="#171717" stroke-width="1.2" fill="none" opacity="0.3" />
  <path d="M290 95 Q294 90 298 95" stroke="#171717" stroke-width="1" fill="none" opacity="0.2" />

  <!-- Grass left -->
  <path d="M0 230 Q5 215 8 230 Q12 210 15 230 Q20 218 22 230" stroke="#171717" stroke-width="1.5" fill="none" opacity="0.4" />
</svg>